<?xml version="1.0" standalone="no"?><!DOCTYPE svg PUBLIC "-//W3C//DTD SVG 1.1//EN" "http://www.w3.org/Graphics/SVG/1.1/DTD/svg11.dtd"><svg t="1596436134874" class="icon" viewBox="0 0 5300 1024" version="1.1" xmlns="http://www.w3.org/2000/svg" p-id="7422" width="248.4375" height="48" xmlns:xlink="http://www.w3.org/1999/xlink"><defs><style type="text/css"></style></defs><path d="M1126.4 599.341176h463.811765l54.211764-195.764705H1177.6zM2433.505882 30.117647h-225.882353L2048 599.341176c-3.011765 12.047059-6.023529 21.082353-9.035294 33.129412-9.035294 33.129412-18.070588 66.258824-30.117647 87.341177-9.035294 18.070588-39.152941 36.141176-63.247059 36.141176-33.129412 0-60.235294-27.105882-60.235294-60.235294 0-21.082353 6.023529-48.188235 18.070588-90.352941H1686.588235c-3.011765 18.070588-9.035294 48.188235-9.035294 51.2-3.011765 15.058824-6.023529 33.129412-6.023529 48.188235 0 147.576471 117.458824 265.035294 265.035294 265.035294 84.329412 0 156.611765-39.152941 204.8-99.388235 3.011765-3.011765 3.011765-6.023529 6.023529-9.035294 27.105882-36.141176 51.2-78.305882 69.270589-123.482353v-3.011765c24.094118-51.2 48.188235-120.470588 72.282352-207.811764L2433.505882 30.117647zM4900.141176 602.352941c60.235294 18.070588 99.388235 36.141176 114.447059 54.211765 15.058824 18.070588 24.094118 42.164706 24.094118 66.258823v3.011765c3.011765-15.058824 3.011765-27.105882 3.011765-42.164706 0-66.258824-27.105882-129.505882-69.270589-174.682353-30.117647-33.129412-72.282353-63.247059-111.435294-96.37647-27.105882-21.082353-45.176471-54.211765-45.17647-90.352941 0-6.023529 0-12.047059 3.011764-21.082353 0-3.011765 0-6.023529 3.011765-6.02353 0-3.011765 3.011765-9.035294 3.011765-12.047059 0-3.011765 3.011765-6.023529 3.011765-9.035294 18.070588-39.152941 57.223529-66.258824 102.4-66.258823h322.258823l33.129412-174.682353h-358.4c-72.282353 0-132.517647 12.047059-174.682353 36.141176-42.164706 24.094118-75.294118 57.223529-96.376471 102.4-21.082353 42.164706-33.129412 87.341176-33.129411 135.529412 0 72.282353 21.082353 132.517647 63.247058 180.705882 45.176471 48.188235 114.447059 87.341176 213.835294 114.447059zM518.023529 234.917647c78.305882 0 150.588235 33.129412 201.788236 87.341177h265.035294C906.541176 138.541176 725.835294 9.035294 515.011765 9.035294 237.929412 9.035294 15.058824 234.917647 15.058824 512S240.941176 1014.964706 518.023529 1014.964706c210.823529 0 391.529412-129.505882 466.82353-316.235294h-265.035294c-51.2 54.211765-123.482353 90.352941-204.8 90.352941-114.447059 0-210.823529-69.270588-252.988236-165.647059h246.964706c60.235294 0 111.435294-48.188235 111.435294-111.435294 0-60.235294-48.188235-111.435294-111.435294-111.435294H265.035294c42.164706-96.376471 138.541176-165.647059 252.988235-165.647059z" p-id="7423" fill="#ffffff"></path><path d="M5144.094118 403.576471c-42.164706-27.105882-108.423529-54.211765-201.788236-81.317647-33.129412-9.035294-60.235294-33.129412-60.235294-33.129412s-9.035294-9.035294 12.047059 30.117647 102.4 105.411765 102.4 105.411765c3.011765 3.011765 6.023529 3.011765 9.035294 6.023529 9.035294 9.035294 18.070588 15.058824 24.094118 24.094118 27.105882 30.117647 45.176471 63.247059 57.223529 102.4 3.011765 15.058824 6.023529 33.129412 6.02353 48.188235 0 90.352941-66.258824 165.647059-153.6 177.694118h-430.682353l-48.188236 183.717647h487.905883c69.270588 0 123.482353-15.058824 168.658823-39.152942 45.176471-27.105882 81.317647-66.258824 108.42353-114.447058 27.105882-51.2 39.152941-105.411765 39.152941-165.647059 0-51.2-9.035294-96.376471-30.117647-138.541177-15.058824-42.164706-48.188235-78.305882-90.352941-105.411764zM3358.117647 590.305882c-12.047059-12.047059-30.117647-24.094118-57.223529-33.129411 30.117647-18.070588 51.2-36.141176 69.270588-57.22353 42.164706-48.188235 63.247059-108.423529 63.247059-180.705882 0-48.188235-12.047059-93.364706-33.129412-135.529412-9.035294-21.082353-24.094118-39.152941-39.152941-54.211765-3.011765-3.011765-6.023529-6.023529-9.035294-12.047058-54.211765-54.211765-129.505882-87.341176-210.82353-87.341177h-265.035294l54.211765 189.741177H3144.282353c48.188235 6.023529 84.329412 45.176471 84.329412 93.364705 0 51.2-39.152941 90.352941-87.341177 93.364706h-3.011764c-81.317647 12.047059-162.635294 33.129412-237.929412 63.247059L2776.847059 30.117647h-243.952941L2258.823529 969.788235h228.894118l3.011765-9.035294h3.011764c63.247059-117.458824 147.576471-219.858824 249.976471-304.188235l36.141177 156.611765 36.141176 153.6h234.917647l-126.494118-433.694118c27.105882-15.058824 54.211765-27.105882 81.317647-39.152941 18.070588-6.023529 30.117647-6.023529 30.117648-6.02353 21.082353 0 39.152941 6.023529 54.211764 21.082353 12.047059 12.047059 24.094118 36.141176 39.152941 72.282353L3252.705882 963.764706h246.964706s-105.411765-301.176471-114.447059-328.282353c-3.011765-12.047059-12.047059-30.117647-27.105882-45.176471z m-795.105882 66.258824l12.047059-45.176471 78.305882-337.317647 66.258823 280.094118c-54.211765 30.117647-108.423529 66.258824-156.611764 102.4zM4388.141176 30.117647l-265.035294 939.670588h225.882353L4611.011765 30.117647zM4050.823529 30.117647l-162.635294 677.647059L3725.552941 30.117647h-234.917647l274.070588 939.670588h243.952942L4276.705882 30.117647z" p-id="7424" fill="#ffffff"></path></svg>